<svg width="139" height="104" viewBox="0 0 139 104" fill="none" xmlns="http://www.w3.org/2000/svg">
<path fill-rule="evenodd" clip-rule="evenodd" d="M60.9476 45.4286C59.7122 46.322 59.9089 48.0798 60.2807 49.3569C60.8284 51.2374 61.9191 52.9782 63.1633 54.4788C65.3706 57.1408 69.1178 60.1298 72.5718 57.7928C75.6478 55.7115 77.5881 51.5118 78.2578 47.9743C78.4648 46.8811 78.7405 45.2522 77.7679 44.4303C76.3301 43.2155 73.7938 43.4365 72.0581 43.5929C70.915 43.6958 69.8121 44.0454 68.6825 43.8813C66.0578 43.4997 63.1368 43.8454 60.9476 45.4286Z" fill="#FFE8D6"/>
<path fill-rule="evenodd" clip-rule="evenodd" d="M114.162 59.359C111.66 62.5257 107.405 63.0261 103.627 62.995C101.358 62.9763 99.0845 62.8059 96.8601 62.3446C95.6608 62.0959 94.4696 61.7664 93.3109 61.3706C92.5455 61.1091 91.4061 60.9784 91.0804 60.1603C90.2212 58.0016 90.8534 55.2945 91.2071 53.1035C91.3871 51.9891 91.5223 50.868 91.6973 49.7526C91.8092 49.0391 91.8628 48.2495 92.1627 47.5819C92.5137 46.7998 92.957 46.956 93.6994 47.172C94.7222 47.4699 95.7723 47.5938 96.8239 47.7539C99.3903 48.1449 101.629 48.9332 103.962 50.0506C106.268 51.1555 108.505 52.246 110.562 53.7823C111.605 54.5608 112.503 55.4059 113.339 56.3981C113.986 57.1646 114.951 58.3613 114.162 59.359ZM103.224 73.4245C103.203 73.7655 99.2816 72.7361 98.7655 72.6206C95.3792 71.8629 91.9257 70.9999 88.7288 69.6309C85.7448 68.3531 83.1156 66.8911 80.7675 64.6208C79.6729 63.5626 78.6884 62.4482 77.7464 61.2614C77.2743 60.6666 76.6292 60.7356 76.1027 60.2324C75.6291 59.7794 75.2659 59.4258 75.4139 58.7486C76.5973 59.0597 78.7825 61.0151 80.0093 60.0277C80.7086 59.4649 79.7387 58.8769 79.291 58.5508C78.4494 57.9376 77.7297 57.1809 77.0606 56.3869C78.2094 56.609 79.2786 57.0382 80.2784 57.6356C80.7226 57.901 82.245 58.8635 82.5994 57.946C82.8175 57.3811 81.7852 56.6715 81.4634 56.359C80.673 55.5918 79.8198 54.6962 79.4003 53.6647C80.4377 53.4246 81.4156 54.2245 82.1221 54.876C82.9063 55.5993 83.8677 56.3585 84.5253 57.192C84.8645 57.6219 84.9384 58.1296 85.2033 58.5933C85.5016 59.1149 85.9785 59.5621 86.4344 59.9481C87.3127 60.6919 88.34 61.2395 89.3945 61.6924C91.8041 62.7274 94.3868 63.4598 96.9552 63.9736C98.2152 64.2257 99.4442 64.3418 100.723 64.3846C101.717 64.4179 102.157 64.7144 102.536 65.6279C103.563 68.1 103.377 70.8196 103.224 73.4245ZM73.7293 54.5881C73.1547 55.1245 72.4079 55.461 71.8073 55.9767C71.2787 56.4304 70.669 56.9146 70.0791 57.2815C69.4493 57.6731 68.9788 57.3986 68.4117 57.0442C67.7461 56.6284 66.9808 56.4599 66.2952 56.0878C63.9247 54.8008 61.0246 51.647 61.4672 48.7512C61.6547 47.5239 62.2908 46.3163 63.4458 45.7594C64.4948 45.2538 66.0197 44.9732 67.1419 45.3958C67.7749 45.6343 68.2279 46.1608 68.6334 46.6783C69.1063 47.2816 69.2875 47.1865 69.7691 46.6046C70.631 45.5637 72.0523 44.6504 73.4573 44.6724C74.1556 44.6834 74.8492 44.8303 75.4782 45.1194C75.5635 45.1586 75.6109 45.2773 75.6965 45.3175C75.8015 45.3669 75.9742 45.2642 76.0472 45.3103C76.2314 45.4266 76.4152 45.79 76.5214 45.9743C76.9477 46.7141 77.7152 48.1651 76.9418 48.7879C76.9413 48.7882 76.9762 49.6307 76.9656 49.7268C76.911 50.2294 76.7368 50.6444 76.5124 51.104C75.8385 52.485 74.8438 53.5481 73.7293 54.5881ZM74.8751 66.2718C74.3308 66.4406 73.7444 64.7387 74.2666 64.4671C74.7644 64.2079 75.368 66.1191 74.8751 66.2718ZM66.325 64.2369C66.1364 64.8798 66.0568 65.6093 65.5958 66.1326C65.1737 65.6329 65.132 64.7108 65.5414 64.1972C65.7751 63.9041 66.5312 63.5344 66.325 64.2369ZM83.7456 52.9728C83.7425 52.9892 84.4006 53.3031 84.0795 53.6465C83.6408 54.1154 83.7012 53.2027 83.7456 52.9728ZM86.4651 47.7333C86.4576 48.3834 85.0782 48.2264 85.088 47.5726C85.1 46.768 86.4732 47.0442 86.4651 47.7333ZM84.8185 42.3005C84.9551 41.7054 87.3544 40.8775 87.2891 41.9147C87.2563 42.4347 84.529 43.5658 84.8185 42.3005ZM60.2214 62.4836C59.9525 62.8062 59.5704 62.9334 59.248 63.181C58.9099 63.4404 58.6683 63.7771 58.3731 64.0817C57.5622 64.9181 56.586 65.6053 55.7113 66.3736C54.1029 67.786 52.5623 69.3043 50.7791 70.5022C47.5925 72.6424 43.8973 73.813 40.2289 74.8381C39.9251 74.923 39.0496 75.2657 38.749 75.0104C38.4247 74.7351 38.5896 73.7663 38.6045 73.4C38.6653 71.8981 38.8408 70.3785 38.8219 68.8789C38.814 68.2629 38.6332 67.3873 38.9554 66.8237C39.3151 66.1943 40.3193 66.0101 40.9406 65.7732C42.8288 65.0533 44.6477 63.8387 46.3158 62.7139C48.3661 61.3311 50.437 59.9253 52.547 58.6344C54.6143 57.3698 56.8946 56.523 59.2006 55.8007C59.3074 56.0246 58.2071 56.7453 58.0813 56.8464C57.478 57.3309 56.8217 57.8331 56.3739 58.4727C56.0568 58.9254 55.7317 59.95 56.6071 59.9763C57.0315 59.9891 57.6588 59.5795 58.0436 59.4471C58.6792 59.2283 59.3341 59.0747 59.999 58.9748C59.4274 59.6026 57.4901 60.7303 57.8426 61.7744C58.1846 62.7876 60.1627 61.6053 60.8437 61.6053C60.732 61.9586 60.4515 62.2078 60.2214 62.4836ZM36.8514 65.3114C35.5846 65.7559 34.2861 66.0086 32.9786 66.2955C31.7324 66.569 30.5804 66.7752 29.3039 66.615C27.5415 66.394 25.5912 65.6657 25.3677 63.6679C25.1028 61.3008 26.7785 59.1256 28.2175 57.4274C29.9686 55.3612 31.9351 53.514 34.0662 51.8414C36.1949 50.1705 38.4926 48.6973 40.8998 47.4536C42.731 46.5075 44.7993 45.933 46.7356 45.223C47.104 45.088 48.1229 44.6133 48.4675 45.0066C48.746 45.3247 48.367 45.8547 48.24 46.15C47.9925 46.7258 47.9584 47.3055 47.8945 47.9237C47.609 50.6846 47.2653 53.4447 47.1072 56.2174C47.0631 56.9902 46.9856 57.7985 47.0308 58.5718C47.0557 59.0001 47.2792 59.5456 47.1304 59.9638C46.8444 60.7676 45.5346 61.2997 44.8405 61.6588C43.5978 62.3015 42.2819 62.7812 41.0265 63.3961C39.6477 64.0713 38.3053 64.8012 36.8514 65.3114ZM54.4208 47.3721C54.7686 47.3245 55.2895 47.23 55.5994 47.4547C56.0037 47.7478 55.8977 48.1556 55.5243 48.3681C55.2295 48.5362 54.5393 48.5821 54.248 48.4296C53.7518 48.17 53.8357 47.4525 54.4208 47.3721ZM56.3467 53.7651C56.0656 54.232 55.0387 54.5383 55.1281 53.667C55.2048 52.9209 56.8642 52.9054 56.3467 53.7651ZM55.9654 40.6123C56.4171 40.7868 57.2369 40.9363 57.3709 41.5159C57.4956 42.0555 56.9831 42.0198 56.6132 41.8713C56.309 41.7494 54.9539 40.603 55.9654 40.6123ZM126.741 61.1941C126.477 60.1699 126.678 59.0359 126.532 57.9869C126.391 56.97 126.137 56.0355 125.772 55.077C124.965 52.9554 124.039 51.0454 122.73 49.1834C120.265 45.6768 117.405 42.588 113.951 40.0267C110.542 37.4982 106.766 35.4433 102.766 34.0031C98.525 32.4758 94.2558 31.9442 89.7833 31.6515C88.4476 31.5642 87.1133 31.4606 85.7852 31.2922C84.8145 31.1692 83.5977 31.0177 82.638 31.3143C82.0351 31.5008 81.6982 32.0253 82.355 32.3695C82.8207 32.6136 83.4304 32.6427 83.9447 32.7076C83.3234 34.6766 82.3126 36.6524 80.7105 38.0082C79.1466 39.3319 77.0537 39.7857 75.0799 40.1214C74.0095 40.3033 72.8111 40.4441 71.7241 40.3656C71.0369 40.3161 70.5007 39.9987 70.2234 40.7048C70.031 41.1954 69.9399 41.7337 69.6863 40.993C69.3862 40.1172 69.239 40.1228 68.3057 39.8741C66.397 39.3654 64.209 38.9012 62.5438 37.8012C60.8163 36.6599 60.2155 34.8136 59.2511 33.0944C59.0125 32.6695 58.2931 31.8094 58.6607 31.3225C58.9969 30.8772 60.0902 30.9216 60.5908 30.8752C61.1191 30.8261 61.6506 30.8241 62.1806 30.8036C62.4877 30.7917 63.1054 30.9173 62.9819 30.4597C62.7954 29.77 60.7985 29.8584 60.3025 29.8472C59.3803 29.8266 58.4453 29.8479 57.5277 29.9491C52.978 30.451 48.3874 31.3792 43.9847 32.6169C35.4427 35.0181 27.1697 39.4427 20.9359 45.8171C14.952 51.9358 13.0562 62.118 16.7349 69.9305C18.6466 73.9908 22.7955 75.6588 26.8173 77.0059C28.9386 77.7164 31.1849 78.2721 33.4399 78.1381C34.5221 78.0737 35.5489 77.783 36.6043 77.5641C37.0646 77.4684 37.5883 77.3161 38.0611 77.3546C38.419 77.3837 38.7628 77.7114 39.0985 77.5373C39.3368 77.4137 39.4404 77.0589 39.7315 76.9077C40.0811 76.7264 40.505 76.6609 40.8825 76.5695C41.932 76.3151 42.9482 75.9027 43.974 75.5646C45.0348 75.2148 46.0359 74.7644 47.0537 74.3091C47.5676 74.0791 48.7569 73.144 49.0918 73.8276C49.2445 74.1396 49.1795 74.7414 49.2166 75.0686C49.2818 75.6408 49.3584 76.2118 49.442 76.7817C49.6264 78.0362 49.8471 79.2855 50.0732 80.5333C50.4815 82.7847 51.0076 84.94 51.8872 87.0579C52.5895 88.7489 53.2061 90.6655 54.5102 92.0108C55.0795 92.5979 55.8564 92.8622 56.6729 92.6777C57.6017 92.4677 58.0641 91.626 58.6279 90.9455C59.8685 89.448 61.9166 88.3006 63.8079 87.8875C66.1239 87.3817 68.3799 88.1215 70.5905 88.7503C72.9288 89.4155 75.3093 90.0492 77.6045 90.8488C79.7432 91.594 82.0526 92.6945 84.3721 92.5987C86.3948 92.5153 88.2842 90.873 89.7429 89.6211C91.2081 88.3638 93.04 86.5229 95.1467 86.6711C96.1928 86.7446 97.1461 87.248 98.165 87.4527C99.2837 87.6774 100.474 87.7093 101.611 87.793C103.023 87.897 106.183 87.5297 106.705 85.835C106.782 85.5836 106.783 85.0659 106.45 84.9653C106.144 84.8729 105.988 85.2299 105.698 85.2136C105.107 85.1804 104.646 84.1541 104.322 83.7568C103.014 82.1527 101.22 80.9563 99.7518 79.5072C98.0942 77.8711 96.6791 75.8888 95.4302 73.9337C95.9948 73.7873 96.604 74.0304 97.1505 74.1459C97.8145 74.2862 98.4615 74.4558 99.1159 74.6355C99.8371 74.8336 100.569 74.9697 101.3 75.1208C101.847 75.2332 102.571 75.2672 103.064 75.5404C103.495 75.7791 103.735 76.0353 104.269 76.1045C104.812 76.1748 105.37 76.1155 105.916 76.1119C107.392 76.1019 108.865 76.0745 110.334 75.9189C115.525 75.3687 121.028 73.1782 124.15 68.8309C124.999 67.6484 125.683 66.3384 126.115 64.9484C126.453 63.8631 127.034 62.3337 126.741 61.1941Z" fill="black"/>
<path fill-rule="evenodd" clip-rule="evenodd" d="M78.0502 11.1053C79.4145 11.1245 80.6932 11.5281 81.9644 11.9869C83.0823 12.3903 84.2741 12.7636 85.178 13.5688C86.8038 15.0173 87.2273 17.4156 87.4934 19.4675C87.8253 22.028 86.7209 24.1762 85.7914 26.4927C84.922 28.6592 83.3264 30.4143 81.4298 31.7517C80.4361 32.4522 79.338 32.8751 78.189 33.2459C77.0219 33.6225 75.8916 34.1269 74.6429 34.125C72.7466 34.1223 70.3189 33.2238 69.5111 31.36C69.1434 30.5114 69.5015 30.3591 70.2374 30.8203C71.305 31.4894 72.3342 32.2115 73.5817 32.5083C76.0012 33.0841 78.899 32.192 81.0206 31.015C83.1413 29.8383 84.5651 28.0707 85.5166 25.8697C86.4766 23.6492 86.8497 21.4612 86.4794 19.0673C86.1657 17.0387 85.5415 15.1857 83.7091 14.0844C79.7531 11.7074 74.4233 11.899 70.9053 14.9881C70.4228 15.4115 69.9459 15.8236 69.4488 16.228C69.1327 16.485 68.7604 16.7934 68.8064 17.2379C68.8457 17.6185 69.6592 19.0861 68.6796 18.6353C67.8855 18.2698 67.4539 17.5553 66.4919 17.4668C65.4681 17.3726 64.2467 18.1573 63.9404 19.1449C63.6483 20.0872 64.1692 21.3764 64.9852 21.9169C65.4906 22.2516 66.0466 22.1999 66.6204 22.1864C66.9052 22.1797 67.698 22.0874 67.8864 22.3877C68.2199 22.9189 67.0434 23.4773 66.6638 23.5948C65.7399 23.8807 64.6481 23.5442 64.117 22.7215C63.5771 21.8851 63.2076 20.9171 63.1331 19.9207C63.0621 18.966 63.2793 17.9995 63.8438 17.2156C64.4443 16.3819 65.6684 15.4473 66.7658 15.7369C67.242 15.8626 67.6247 16.3535 68.0921 16.4468C68.3871 16.5056 68.263 16.5476 68.5074 16.3295C68.6625 16.1911 68.8092 15.9357 68.9524 15.7716C69.776 14.8283 70.5903 13.8216 71.5983 13.0667C73.4057 11.7129 75.8079 11.0735 78.0502 11.1053ZM73.0522 29.8069C73.266 29.307 73.6587 30.1988 73.7747 30.3479C74.0046 30.6428 74.5451 30.8723 74.5217 31.3074C74.4832 32.0256 73.5019 31.8924 73.1747 31.5177C72.8023 31.0912 72.8412 30.3006 73.0522 29.8069ZM80.0241 26.4062C80.5535 27.2293 79.9083 28.1177 79.4898 28.8461C79.0895 29.5426 78.7178 30.33 78.2519 30.9848C77.4785 32.0719 75.7958 30.8959 75.7459 29.7785C75.7076 28.9232 76.315 29.2955 76.7048 29.615C77.106 29.944 77.2961 30.0259 77.7168 29.6666C78.5629 28.9433 78.943 27.734 79.528 26.8183C79.6439 26.6368 79.8541 26.5276 80.0241 26.4062ZM81.5333 26.6709C81.6698 27.0689 81.3834 28.1236 82.1795 28.0181C82.6195 27.9599 82.7134 27.3302 82.9446 27.0553C83.7224 26.1313 83.4839 27.8789 83.2806 28.3163C82.8327 29.2802 81.579 29.9444 80.9572 28.7215C80.7259 28.2666 80.7269 27.6924 80.8444 27.2034C80.9084 26.9371 81.2814 25.9359 81.5333 26.6709ZM74.4338 24.7858C74.3633 25.2502 73.9257 26.1755 74.46 26.5077C74.9301 26.8001 75.7487 26.1651 76.1107 25.8999C76.4868 25.6243 77.3392 24.8339 77.3726 25.8176C77.3897 26.319 76.8865 26.9206 76.5275 27.2095C75.7615 27.8256 74.1699 28.3781 73.6054 27.2186C73.2979 26.5869 73.4661 25.6877 73.6694 25.0511C73.8342 24.5353 74.604 23.6641 74.4338 24.7858ZM84.4805 22.2432C84.7922 22.6044 85.5311 23.4134 85.1293 23.9277C84.6596 24.5289 83.8965 23.4259 83.5956 23.119C83.3245 22.8424 82.7543 22.055 82.9974 21.6373C83.4 20.9462 84.2068 21.9262 84.4805 22.2432ZM79.5809 20.6883C80.5998 21.3505 79.2602 21.8273 78.6798 21.8866C77.9774 21.958 77.0793 22.0055 76.4342 21.6616C75.5197 21.1742 75.8244 20.438 76.7108 20.2617C77.6197 20.0812 78.7901 20.1743 79.5809 20.6883ZM66.3345 18.5802C67.0838 18.7256 67.9396 18.9149 68.1949 19.7299C68.4584 20.5721 68.0797 20.8516 67.3144 20.662C66.6063 20.4865 65.5486 20.3099 65.1482 19.6199C64.6699 18.7955 65.6397 18.4455 66.3345 18.5802Z" fill="black"/>
<path fill-rule="evenodd" clip-rule="evenodd" d="M25.105 36.6776C24.8536 37.4877 23.5809 38.025 22.9462 38.5175C20.7262 40.2404 18.5569 42.0342 16.55 44.0006C15.5083 45.0212 14.7198 46.2557 13.8164 47.3908C13.596 47.6678 13.2056 48.2883 12.7733 48.23C12.299 48.1663 12.2031 47.3514 12.2183 46.9955C12.2701 45.7819 13.3811 44.6099 14.1734 43.7742C15.0647 42.8346 16.0176 41.9189 16.9908 41.0633C18.0622 40.1214 19.2249 39.3118 20.4098 38.5191C21.5733 37.7407 22.6888 36.8415 23.8988 36.1365C24.4688 35.8044 25.4152 35.6781 25.105 36.6776ZM102.706 28.984C103.632 29.0132 104.536 29.3164 105.41 29.5979C107.333 30.2172 109.164 31.0762 110.969 31.9741C114.134 33.5479 117.18 35.4522 119.972 37.6173C120.556 38.0698 121.154 38.4365 121.789 38.8065C122.195 39.0435 122.774 39.3327 122.931 39.8158C123.328 41.0438 121.322 39.8113 121.037 39.635L120.636 39.3872C114.696 35.7143 108.762 32.1456 102.043 30.0392C101.685 29.927 101.573 29.6085 101.761 29.2927C101.965 28.9505 102.361 28.9732 102.706 28.984ZM24.8347 31.5541C24.7917 31.9279 24.3672 32.013 24.0809 32.133C23.0126 32.5807 21.9176 32.9624 20.8522 33.4175C18.8748 34.2621 17.0589 35.4878 14.9949 36.1288C14.5232 36.2756 14.4536 35.8007 14.5799 35.4775C14.7206 35.1168 15.143 34.8636 15.4485 34.655C16.3298 34.0527 17.3293 33.6197 18.308 33.2013C19.2783 32.7862 20.2774 32.4723 21.2722 32.1243C22.1968 31.8008 23.27 31.1989 24.2629 31.1544L24.3063 31.1523C24.6223 31.1364 24.8847 31.1151 24.8347 31.5541ZM104.392 25.874C103.447 25.6089 104.34 25.0122 104.901 25.0542C105.528 25.101 106.133 25.396 106.727 25.5739C108.543 26.1179 110.227 26.7128 111.923 27.5571C112.176 27.6832 113.291 28.2808 112.553 28.5454C112.042 28.7287 110.849 27.9421 110.41 27.7534C108.482 26.9241 106.411 26.4403 104.392 25.874Z" fill="black"/>
<path fill-rule="evenodd" clip-rule="evenodd" d="M66.7319 27.8053C66.85 27.4596 68.3106 23.6812 67.7389 23.5673C67.1334 23.4465 66.3239 25.6387 66.1483 26.0348C65.4995 27.4975 65.1154 29.0671 64.8144 30.6361C64.6048 31.7286 64.4206 32.8479 64.494 33.9648C64.5504 34.8232 64.9058 34.9532 65.4914 35.4792C65.4914 32.8719 65.8886 30.273 66.7319 27.8053Z" fill="black"/>
</svg>
