<svg width="330" height="330" viewBox="0 0 330 330" fill="none" xmlns="http://www.w3.org/2000/svg">
<path d="M175.619 270.165C243.714 270.165 298.916 214.963 298.916 146.868C298.916 78.7732 243.714 23.5714 175.619 23.5714C107.525 23.5714 52.3228 78.7732 52.3228 146.868C52.3228 214.963 107.525 270.165 175.619 270.165Z" fill="#E9C46A"/>
<path d="M97.9967 156.765C101.059 153.1 104.889 150.151 109.215 148.127C113.542 146.104 118.261 145.055 123.037 145.055C127.814 145.055 132.532 146.104 136.859 148.127C141.186 150.151 145.016 153.1 148.078 156.765C153.266 151.813 156.868 145.433 158.43 138.433C159.993 131.433 159.444 124.127 156.853 117.439C154.263 110.75 149.748 104.98 143.878 100.858C138.009 96.7365 131.049 94.4476 123.879 94.2812C116.708 94.1148 109.65 96.0783 103.595 99.9236C97.5408 103.769 92.7626 109.323 89.8649 115.884C86.9672 122.445 86.08 129.718 87.3157 136.783C88.5513 143.848 91.8543 150.388 96.8068 155.576C97.1942 155.981 97.5908 156.378 97.9967 156.765Z" fill="white"/>
<path d="M195.908 156.765C198.971 153.1 202.8 150.151 207.127 148.127C211.454 146.104 216.172 145.055 220.949 145.055C225.725 145.055 230.444 146.104 234.771 148.127C239.097 150.151 242.927 153.1 245.989 156.765C251.177 151.813 254.78 145.433 256.342 138.433C257.904 131.433 257.355 124.127 254.765 117.439C252.175 110.75 247.659 104.98 241.79 100.858C235.921 96.7365 228.961 94.4476 221.79 94.2812C214.62 94.1148 207.561 96.0783 201.507 99.9236C195.452 103.769 190.674 109.323 187.777 115.884C184.879 122.445 183.992 129.718 185.227 136.783C186.463 143.848 189.766 150.388 194.718 155.576C195.106 155.981 195.502 156.378 195.908 156.765Z" fill="white"/>
<path d="M110.666 130.661C117.556 130.661 123.141 125.076 123.141 118.187C123.141 111.297 117.556 105.712 110.666 105.712C103.777 105.712 98.1919 111.297 98.1919 118.187C98.1919 125.076 103.777 130.661 110.666 130.661Z" fill="#3F3D56"/>
<path d="M208.575 130.661C215.464 130.661 221.049 125.076 221.049 118.187C221.049 111.297 215.464 105.712 208.575 105.712C201.686 105.712 196.101 111.297 196.101 118.187C196.101 125.076 201.686 130.661 208.575 130.661Z" fill="#3F3D56"/>
<path d="M86.7731 192.198C94.7842 192.198 101.279 185.703 101.279 177.692C101.279 169.681 94.7842 163.187 86.7731 163.187C78.7619 163.187 72.2676 169.681 72.2676 177.692C72.2676 185.703 78.7619 192.198 86.7731 192.198Z" fill="#F4A261"/>
<path d="M253.586 192.198C261.597 192.198 268.092 185.703 268.092 177.692C268.092 169.681 261.597 163.187 253.586 163.187C245.575 163.187 239.081 169.681 239.081 177.692C239.081 185.703 245.575 192.198 253.586 192.198Z" fill="#F4A261"/>
<path d="M170.18 148.681L159.301 195.824L177.432 177.693L170.18 148.681Z" fill="#F4A261"/>
<path d="M226.08 330L213.728 319.634L214.016 330H210.18L209.873 319.039L193.197 330H186.216L209.749 314.532L208.837 282.053L208.156 257.523L211.983 257.418L212.674 282.053L213.584 314.503L232.044 330H226.08Z" fill="#3F3D56"/>
<path d="M168.053 330L155.702 319.634L155.99 330H152.164L151.857 319.039L135.18 330H128.199L151.723 314.532L150.812 282.053L150.131 257.523L153.966 257.418L154.657 282.053L155.558 314.503L174.018 330H168.053Z" fill="#3F3D56"/>
<path d="M177.432 14.5054C174.049 14.5054 171.065 17.1334 169.07 21.1699C167.311 15.1002 163.616 10.8791 159.301 10.8791C159.007 10.9083 158.716 10.9572 158.43 11.0254C156.771 4.54492 152.916 0 148.422 0C142.413 0 137.542 8.118 137.542 18.1319C137.542 28.1457 142.413 36.2637 148.422 36.2637C148.715 36.2346 149.006 36.1857 149.292 36.1174C150.951 42.5979 154.806 47.1429 159.301 47.1429C162.684 47.1429 165.668 44.5149 167.664 40.4784C169.422 46.5481 173.117 50.7692 177.432 50.7692C183.441 50.7692 188.312 42.6512 188.312 32.6373C188.312 22.6234 183.441 14.5054 177.432 14.5054Z" fill="#E9C46A"/>
<path d="M62.2945 150.744L16.9803 139.807C14.6968 139.256 12.3716 138.703 10.0808 139.183C7.79006 139.663 5.49692 141.341 4.32913 144.313C3.76789 145.741 3.49581 147.38 3.54554 149.033C3.59528 150.686 3.96472 152.282 4.60949 153.63C5.25425 154.977 6.14691 156.019 7.1801 156.63C8.21329 157.241 9.34304 157.395 10.4336 157.073C7.96014 156.954 5.3604 156.875 3.1655 158.576C0.970591 160.277 -0.583602 164.409 0.486487 167.73C0.807587 168.647 1.24198 169.465 1.76691 170.141C3.41869 172.345 5.45595 173.807 7.64293 174.359C9.82991 174.911 12.0772 174.53 14.1248 173.26C12.4565 176.82 9.14629 177.349 6.28282 178.173C3.41936 178.997 0.109098 181.408 0.00268498 185.745C-0.116885 190.618 3.78063 193.208 6.9892 194.201C24.1219 199.446 41.9056 197.289 58.2413 187.984C60.0772 187.044 61.8149 185.724 63.4032 184.062C65.1834 182.05 66.5364 179.318 67.3001 176.192C68.0639 173.065 68.206 169.678 67.7095 166.434C67.213 163.191 66.0989 160.229 64.5005 157.904C62.9022 155.578 60.8874 153.987 58.6972 153.322" fill="#E9C46A"/>
<path d="M328.536 203.15C320.534 180.579 307.859 161.533 292.007 148.259C290.286 146.707 288.41 145.485 286.434 144.631C284.133 143.76 281.693 143.791 279.405 144.722C277.118 145.653 275.079 147.444 273.535 149.88C271.99 152.317 271.005 155.295 270.696 158.459C270.387 161.624 270.768 164.839 271.794 167.722L268 165.104C275.618 184.439 283.235 203.774 290.852 223.109C292.004 226.032 293.182 229.003 294.931 231.34C296.679 233.677 299.118 235.326 301.577 234.945C302.553 234.799 303.488 234.343 304.305 233.614C305.121 232.886 305.795 231.907 306.269 230.759C306.743 229.612 307.004 228.329 307.029 227.019C307.055 225.709 306.845 224.41 306.416 223.231C307.485 225.242 308.891 226.892 310.522 228.05C312.911 229.574 316.285 228.965 317.505 225.829C317.825 224.935 318.016 223.967 318.067 222.978C318.271 219.824 317.802 216.656 316.713 213.843C315.624 211.03 313.96 208.685 311.913 207.081C315.032 206.932 317.464 210.404 319.779 213.196C322.094 215.988 325.608 218.375 328.169 215.996C331.046 213.323 330.029 207.383 328.536 203.15Z" fill="#E9C46A"/>
</svg>
