<svg width="310" height="310" viewBox="0 0 310 310" fill="none" xmlns="http://www.w3.org/2000/svg">
<path d="M307.871 41.9603H280.688V101.657H307.871V41.9603Z" fill="#2A9D8F" stroke="#264653" stroke-width="0.871455" stroke-linecap="round" stroke-linejoin="round"/>
<path d="M305.875 44.0807H272.898V57.7995H305.875V44.0807Z" fill="#F4A261"/>
<path opacity="0.35" d="M305.77 85.8287H272.793V99.5475H305.77V85.8287Z" fill="black"/>
<path d="M307.871 41.9603H280.688V101.657H307.871V41.9603Z" stroke="#264653" stroke-width="0.871455" stroke-linecap="round" stroke-linejoin="round"/>
<path d="M29.2759 51.4542H2.09314V111.151H29.2759V51.4542Z" fill="#2A9D8F" stroke="#264653" stroke-width="0.871455" stroke-linecap="round" stroke-linejoin="round"/>
<path d="M36.7395 53.3792H3.76233V67.0979H36.7395V53.3792Z" fill="#F4A261"/>
<path opacity="0.35" d="M37.2664 95.5931H4.28918V109.312H37.2664V95.5931Z" fill="black"/>
<path d="M29.2759 51.4542H2.09314V111.151H29.2759V51.4542Z" stroke="#264653" stroke-width="0.871455" stroke-linecap="round" stroke-linejoin="round"/>
<path d="M241.846 2.86243H67.223C45.1316 2.86243 27.223 20.7711 27.223 42.8625V198.268C27.223 220.359 45.1316 238.268 67.223 238.268H241.846C263.938 238.268 281.846 220.359 281.846 198.268V42.8624C281.846 20.771 263.938 2.86243 241.846 2.86243Z" fill="#2A9D8F" stroke="#264653" stroke-width="1.16836" stroke-linecap="round" stroke-linejoin="round"/>
<path opacity="0.32846" d="M248.051 24.0892C246.598 14.5107 253.888 5.70093 263.576 5.70093V5.70093C272.116 5.70093 279.038 12.6235 279.038 21.1629V239.704C279.038 248.569 271.852 255.755 262.987 255.755V255.755C253.375 255.755 245.926 247.365 246.979 237.811C254.836 166.571 258.855 95.3291 248.051 24.0892Z" fill="black"/>
<path d="M31.4035 130.156C31.4036 130.156 31.4036 130.156 31.4036 130.156L33.4051 21.3306C33.4781 17.3604 36.6636 14.1513 40.6331 14.0488L46.9456 13.886C55.6005 13.6627 56.8259 26.2828 48.2897 27.7288V27.7288C45.2322 28.2468 42.8843 30.7221 42.5286 33.8028L31.4029 130.156C31.4029 130.156 31.4033 130.156 31.4035 130.156V130.156Z" fill="#E76F51"/>
<path d="M138.667 75.7483C138.667 96.7174 121.668 113.717 100.699 113.717C79.7299 113.717 62.7311 96.7181 62.7311 75.7483C62.7311 54.7791 79.7302 37.7798 100.699 37.7798C121.669 37.7798 138.667 54.7785 138.667 75.7483Z" fill="white" stroke="#264653" stroke-width="1.99999"/>
<path d="M118.576 75.7524C118.595 78.1093 118.147 80.4466 117.258 82.6295C116.37 84.8125 115.057 86.7979 113.397 88.4713C111.737 90.1446 109.763 91.4727 107.587 92.3791C105.411 93.2854 103.077 93.7521 100.72 93.7521C98.3634 93.7521 96.0298 93.2854 93.854 92.3791C91.6783 91.4727 89.7035 90.1446 88.0435 88.4713C86.3836 86.7979 85.0713 84.8125 84.1825 82.6295C83.2936 80.4466 82.8458 78.1093 82.8647 75.7524C82.8458 73.3954 83.2936 71.0581 84.1825 68.8751C85.0713 66.6921 86.3836 64.7067 88.0435 63.0334C89.7035 61.36 91.6783 60.0319 93.854 59.1256C96.0298 58.2192 98.3634 57.7526 100.72 57.7526C103.077 57.7526 105.411 58.2192 107.587 59.1256C109.763 60.0319 111.737 61.36 113.397 63.0334C115.057 64.7067 116.37 66.6921 117.258 68.8751C118.147 71.0581 118.595 73.3954 118.576 75.7524V75.7524Z" fill="#E9C46A"/>
<path d="M245.385 74.1134C245.385 100.113 224.308 121.191 198.308 121.191C172.308 121.191 151.231 100.114 151.231 74.1134C151.231 48.1138 172.308 27.0363 198.308 27.0363C224.308 27.0363 245.385 48.113 245.385 74.1134Z" fill="white" stroke="#264653" stroke-width="1.99997"/>
<path d="M211.617 74.1707C211.632 75.9263 211.298 77.6672 210.636 79.2932C209.974 80.9191 208.997 82.398 207.76 83.6443C206.524 84.8907 205.053 85.88 203.432 86.555C201.812 87.2301 200.074 87.5777 198.318 87.5777C196.563 87.5777 194.825 87.2301 193.204 86.555C191.583 85.88 190.113 84.8907 188.876 83.6443C187.64 82.398 186.662 80.9191 186 79.2932C185.338 77.6672 185.005 75.9263 185.019 74.1707C185.005 72.4152 185.338 70.6742 186 69.0482C186.662 67.4223 187.64 65.9434 188.876 64.6971C190.113 63.4507 191.583 62.4614 193.204 61.7863C194.825 61.1112 196.563 60.7637 198.318 60.7637C200.074 60.7637 201.812 61.1112 203.432 61.7863C205.053 62.4614 206.524 63.4507 207.76 64.6971C208.997 65.9434 209.974 67.4223 210.636 69.0482C211.298 70.6742 211.632 72.4152 211.617 74.1707V74.1707Z" fill="#E9C46A"/>
<path d="M16.019 140.913H17.1615C37.5246 140.913 55.8534 153.262 63.5012 172.134L70.8057 190.159C78.4535 209.032 96.7823 221.381 117.145 221.381H190.753C210.272 221.381 228.006 210.022 236.17 192.292L254.139 153.265C257.605 145.736 265.136 140.913 273.425 140.913V140.913C285.151 140.913 294.656 150.418 294.656 162.144V256.8C294.656 284.414 272.271 306.8 244.656 306.8H66.016C38.4017 306.8 16.016 284.414 16.016 256.8V140.916C16.016 140.914 16.0173 140.913 16.019 140.913V140.913Z" fill="#2A9D8F" stroke="#264653" stroke-width="1.32927" stroke-linecap="round" stroke-linejoin="round"/>
<path opacity="0.32846" d="M273.388 144.164C283.373 144.185 291.455 152.285 291.455 162.27L291.446 278.134C291.445 292.21 280.034 303.62 265.958 303.62V303.62C251.806 303.62 240.363 292.09 240.471 277.938L241.065 199.616C241.119 192.509 242.688 185.494 245.667 179.041L256.911 154.681C259.876 148.257 266.312 144.148 273.388 144.164V144.164Z" fill="black"/>
<path d="M20.2601 179.052L20.4469 288.965C20.4554 293.959 24.5002 298.005 29.4934 298.015L33.2321 298.023C43.6041 298.045 45.2428 283.132 35.1136 280.901V280.901C31.4122 280.086 28.6707 276.959 28.3463 273.183L20.2602 179.051C20.2602 179.051 20.2602 179.051 20.2602 179.051V179.051C20.2602 179.051 20.2603 179.051 20.2603 179.051L20.2601 179.052Z" fill="#E76F51"/>
</svg>
