<svg width="572" height="701" viewBox="0 0 572 701" fill="none" xmlns="http://www.w3.org/2000/svg">
<g clip-path="url(#clip0)">
<path d="M237.145 687.3H249.405L255.239 640.012H237.145V687.3Z" fill="#FFB8B8"/>
<path d="M234.018 683.297H258.162C262.241 683.302 266.152 684.924 269.037 687.809C271.922 690.693 273.544 694.604 273.549 698.684V699.184H234.018V683.297Z" fill="#2F2E41"/>
<path d="M79.05 664.069L89.559 670.383L118.914 632.854L103.404 623.535L79.05 664.069Z" fill="#FFB8B8"/>
<path d="M70.249 672.645L78.4309 659.027L99.1267 671.462C102.621 673.567 105.138 676.972 106.125 680.93C107.112 684.888 106.488 689.076 104.391 692.575L104.134 693.004L70.249 672.645Z" fill="#2F2E41"/>
<path d="M233.81 677.39C231.336 674.872 225.193 633.515 216.103 570.709C212.942 548.867 209.95 528.196 207.485 512.365C186.392 558.735 152.29 608.896 111.31 653.8L111.074 654.059L110.751 653.926C97.6409 648.527 95.201 647.276 89.3062 644.254C87.5457 643.351 85.4751 642.29 82.7173 640.911L82.5647 640.793C81.2986 639.346 92.8496 620.173 133.237 554.98C150.83 526.58 169.023 497.213 181.072 476.826L181.184 476.636L181.4 476.591C210.528 470.517 238.614 477.647 260.483 496.669L260.661 496.823L260.655 497.058C260.065 520.966 260.56 558.506 260.998 591.629C261.852 656.296 261.796 675.188 259.781 675.786L259.68 675.805C256.728 676.047 254.277 676.29 252.018 676.513C246.092 677.178 240.133 677.521 234.169 677.54L233.958 677.541L233.81 677.39Z" fill="#264653"/>
<path d="M170.309 296.534C166.182 279.494 162.685 260.274 170.469 244.579C175.869 233.69 195.847 230.023 207.3 233.946C218.752 237.869 227.032 248.512 230.674 260.117C234.315 271.722 233.892 284.227 232.305 296.291C211.243 295.887 190.18 295.482 170.309 296.534Z" fill="#2F2E41"/>
<path d="M205.853 296.529C219.417 296.529 230.414 285.533 230.414 271.968C230.414 258.404 219.417 247.407 205.853 247.407C192.288 247.407 181.292 258.404 181.292 271.968C181.292 285.533 192.288 296.529 205.853 296.529Z" fill="#FFB8B8"/>
<path d="M175.827 266.909C175.749 262.775 176.502 258.668 178.043 254.831C179.584 250.994 181.88 247.506 184.795 244.575C187.71 241.643 191.185 239.327 195.013 237.764C198.841 236.202 202.943 235.425 207.078 235.479C211.212 235.534 215.293 236.419 219.078 238.082C222.863 239.744 226.276 242.151 229.113 245.159C231.95 248.167 234.153 251.714 235.592 255.59C237.031 259.466 237.676 263.592 237.489 267.722C216.466 267.766 195.444 267.811 175.827 266.909Z" fill="#2F2E41"/>
<path d="M272.331 507.209C267.802 491.758 265.546 480.944 262.94 468.455C259.369 451.335 255.321 431.931 244.17 394.152L244.142 394.059L244.151 393.963C247.309 361.198 233.545 326.429 208.232 303.224C206.533 301.788 204.352 301.052 202.13 301.164C199.909 301.277 197.813 302.23 196.268 303.83C182.027 319.822 173.077 334.802 168.907 349.626L168.817 349.947C174.763 369.077 181.416 388.303 187.854 406.903L187.946 407.169L187.766 407.386C163.666 436.403 150.336 475.191 151.139 513.906C174.207 505.845 198.481 501.78 222.916 501.889C239.53 501.893 256.096 503.677 272.331 507.209V507.209Z" fill="#264653"/>
<path opacity="0.1" d="M186.941 382.463L223.217 461.44L243.941 440.463L186.941 382.463Z" fill="black"/>
<path d="M384.631 80.5067C384.976 36.3253 356.155 0.281944 320.258 0.00164444C284.36 -0.278656 254.98 35.3102 254.635 79.4917C254.322 119.547 277.983 152.913 309.155 159.004L307.003 171.903L330.826 172.089L328.875 159.158C360.139 153.554 384.318 120.562 384.631 80.5067Z" fill="#E9C46A"/>
<path d="M276.47 100.663L267.47 100.593C264.62 83.7005 264.755 66.4395 267.869 49.5941L276.868 49.6644C272.836 67.2669 272.703 84.2663 276.47 100.663Z" fill="white"/>
<path d="M332.516 159.102L305.516 158.891L305.47 164.891L332.469 165.102L332.516 159.102Z" fill="#3F3D56"/>
<path d="M509.707 104.902C513.205 60.8575 487.03 22.8487 451.244 20.0066C415.459 17.1645 383.613 50.5652 380.115 94.6093C376.943 134.54 398.162 169.51 428.82 177.811L425.753 190.524L449.501 192.41L448.479 179.372C480.063 176.014 506.535 144.833 509.707 104.902Z" fill="#2A9D8F"/>
<path d="M400.383 117.285L391.411 116.573C389.774 99.5202 391.141 82.3129 395.449 65.7327L404.421 66.4452C399.142 83.7149 397.796 100.662 400.383 117.285Z" fill="white"/>
<path d="M452.114 179.576L425.198 177.439L424.723 183.42L451.639 185.557L452.114 179.576Z" fill="#3F3D56"/>
<path d="M437.711 179.753L241.214 500.485L243.772 502.052L440.269 181.32L437.711 179.753Z" fill="#3F3D56"/>
<path d="M560.501 148.171C581.289 109.184 572.462 63.8866 540.786 46.9962C509.109 30.1058 466.578 48.0183 445.789 87.005C426.942 122.351 432.438 162.883 457.235 182.732L449.348 193.164L470.369 204.373L474.636 192.011C504.935 201.54 541.654 183.517 560.501 148.171Z" fill="#F4A261"/>
<path d="M455.321 115.887L447.38 111.652C452.686 95.3636 460.807 80.1321 471.376 66.6497L479.317 70.8843C467.584 84.6113 459.585 99.6121 455.321 115.887Z" fill="white"/>
<path d="M477.887 193.649L454.063 180.945L451.24 186.24L475.064 198.943L477.887 193.649Z" fill="#3F3D56"/>
<path d="M462.765 190.139L241.479 494.297L243.905 496.062L465.191 191.904L462.765 190.139Z" fill="#3F3D56"/>
<path d="M320.662 161.781L254.891 532.124L257.844 532.648L323.616 162.306L320.662 161.781Z" fill="#3F3D56"/>
<path d="M267.817 466.411C266.351 466.309 264.924 465.887 263.639 465.174C262.353 464.461 261.239 463.475 260.376 462.285C259.513 461.095 258.921 459.73 258.642 458.287C258.363 456.843 258.404 455.356 258.762 453.931L228.872 434.347L245.918 426.982L271.69 446.708C274.045 447.469 276.04 449.067 277.296 451.199C278.552 453.332 278.982 455.851 278.505 458.28C278.027 460.709 276.676 462.878 274.706 464.376C272.736 465.875 270.285 466.599 267.817 466.411V466.411Z" fill="#FFB8B8"/>
<path d="M238.753 451.955C220.878 431.391 202.395 410.127 185.567 388.749L185.459 388.606L185.46 388.431C185.537 370.974 185.616 352.927 187.684 332.736C186.048 331.008 184.819 328.936 184.086 326.671C183.353 324.407 183.135 322.008 183.448 319.649C183.669 317 184.484 314.436 185.831 312.145C187.178 309.854 189.023 307.896 191.229 306.415C199.652 301.094 212.271 303.975 218.236 312.581C223.995 320.889 223.153 332.791 218.759 338.786L213.894 376.938L213.464 376.905L213.559 376.953L213.593 376.925L213.656 377.002L213.804 377.078C213.796 377.094 213.786 377.116 213.774 377.147C229.559 396.419 245.877 416.34 262.179 435.412L262.54 435.835L262.081 436.15C254.444 441.386 246.546 446.8 239.433 452.036L239.056 452.303L238.753 451.955Z" fill="#264653"/>
<path d="M382 700.464H1C0.734784 700.464 0.480444 700.358 0.292908 700.171C0.105371 699.983 0 699.729 0 699.464C0 699.198 0.105371 698.944 0.292908 698.756C0.480444 698.569 0.734784 698.464 1 698.464H382C382.265 698.464 382.52 698.569 382.707 698.756C382.895 698.944 383 699.198 383 699.464C383 699.729 382.895 699.983 382.707 700.171C382.52 700.358 382.265 700.464 382 700.464Z" fill="#3F3D56"/>
<path d="M532.007 491.691L531.402 493.598L493.723 481.643C497.064 486.055 508.256 499.836 519.886 502.874C533.779 506.502 540.934 501.43 543.027 493.415C545.121 485.4 541.36 477.476 527.467 473.847C515.69 470.771 498.914 477.526 494.074 479.655L532.007 491.691Z" fill="#F2F2F2"/>
<path d="M353.9 619.532L351.902 619.633L349.903 580.154C346.94 584.829 337.952 600.139 339.18 612.096C340.648 626.38 347.904 631.305 356.145 630.458C364.386 629.612 370.49 623.315 369.023 609.031C367.78 596.922 355.577 583.575 351.887 579.787L353.9 619.532Z" fill="#F2F2F2"/>
<path d="M30.5318 108.102L31.7237 106.495L63.4727 130.045C61.7473 124.786 55.6402 108.116 45.6288 101.465C33.6686 93.5187 25.254 95.9904 20.6695 102.891C16.085 109.791 17.0667 118.506 29.027 126.452C39.1652 133.188 57.2258 132.252 62.495 131.81L30.5318 108.102Z" fill="#F2F2F2"/>
</g>
<defs>
<clipPath id="clip0">
<rect width="571.757" height="700.463" fill="white"/>
</clipPath>
</defs>
</svg>
